<?xml version="1.0" standalone="no"?>
<!DOCTYPE svg PUBLIC "-//W3C//DTD SVG 20010904//EN"
 "http://www.w3.org/TR/2001/REC-SVG-20010904/DTD/svg10.dtd">
<svg version="1.0" xmlns="http://www.w3.org/2000/svg"
 width="398.000000pt" height="398.000000pt" viewBox="0 0 398.000000 398.000000"
 preserveAspectRatio="xMidYMid meet">
<metadata>
Created by potrace 1.14, written by Peter Selinger 2001-2017
</metadata>
<g transform="translate(0.000000,398.000000) scale(0.100000,-0.100000)"
fill="#000000" stroke="none">
<path d="M2326 3763 c-3 -3 -6 -15 -6 -25 0 -11 -5 -16 -11 -13 -5 4 -19 -1
-29 -10 -18 -16 -18 -16 -13 5 6 21 4 22 -38 15 -24 -4 -60 -15 -79 -25 -38
-18 -120 -36 -120 -26 0 4 10 11 23 16 14 6 17 9 6 9 -9 1 -33 -10 -53 -24
-25 -17 -36 -20 -36 -11 0 10 -17 6 -62 -16 -35 -16 -72 -37 -83 -46 -19 -17
-19 -17 -1 12 13 20 14 27 4 24 -7 -2 -25 -27 -40 -54 -15 -27 -28 -42 -28
-34 -1 11 -4 10 -15 -4 -14 -19 -15 -19 -15 8 0 62 -52 -8 -55 -74 -2 -29 -6
-35 -31 -42 -31 -8 -94 -60 -94 -77 0 -10 14 -15 34 -12 4 1 -1 -13 -13 -32
-11 -18 -27 -61 -35 -95 -18 -76 -16 -67 -16 -97 l0 -25 -510 0 c-352 0 -517
-3 -533 -11 -14 -6 -30 -21 -36 -33 -8 -15 -10 -284 -8 -963 l3 -942 22 -24
22 -24 -23 -10 c-41 -19 -75 -71 -240 -362 -171 -303 -175 -312 -153 -410 6
-26 5 -32 -4 -26 -8 5 -11 4 -6 -3 4 -6 13 -9 21 -5 8 3 15 1 15 -5 0 -13 66
-36 79 -28 5 4 13 2 16 -4 5 -8 11 -7 21 1 8 6 14 7 14 2 0 -5 7 -10 15 -10 8
0 15 3 15 7 0 3 9 6 20 6 11 0 20 -4 20 -9 0 -6 5 -6 13 0 14 10 268 10 285
-1 7 -4 12 -2 12 5 0 10 3 10 12 1 7 -7 17 -8 29 -2 12 7 20 6 24 0 5 -8 11
-7 21 1 8 6 14 7 14 2 0 -5 7 -10 15 -10 8 0 15 3 15 7 0 3 9 6 20 6 11 0 20
-4 20 -9 0 -6 5 -6 12 0 15 10 269 10 286 -1 7 -4 12 -2 12 5 0 10 3 10 12 1
7 -7 17 -8 29 -2 12 7 20 6 24 0 5 -8 11 -7 21 1 8 6 14 7 14 2 0 -5 7 -10 15
-10 8 0 15 3 15 7 0 3 9 6 20 6 11 0 20 -4 20 -9 0 -6 5 -6 13 0 14 10 268 10
285 -1 7 -4 12 -2 12 5 0 10 3 10 12 1 7 -7 17 -8 29 -2 12 7 20 6 24 0 5 -8
11 -7 21 1 8 6 14 7 14 2 0 -5 7 -10 15 -10 8 0 15 3 15 7 0 3 9 6 20 6 11 0
20 -4 20 -9 0 -6 5 -6 13 0 14 10 268 10 285 -1 7 -4 12 -2 12 5 0 10 3 10 12
1 7 -7 17 -8 29 -2 12 7 20 6 24 0 5 -8 11 -7 21 1 8 6 14 7 14 2 0 -5 7 -10
15 -10 8 0 15 3 15 7 0 3 9 6 20 6 11 0 20 -4 20 -9 0 -6 5 -6 13 0 14 10 187
10 205 -1 7 -4 12 -2 12 5 0 9 3 9 14 0 10 -9 16 -9 21 -1 5 8 11 8 21 -1 8
-6 14 -7 14 -2 0 5 9 9 20 9 11 0 20 -4 20 -8 0 -5 8 -5 18 -1 21 10 83 10
100 -1 7 -4 12 -2 12 5 0 10 3 10 12 1 7 -7 17 -8 29 -2 12 7 20 6 24 0 5 -8
11 -7 21 1 8 6 14 7 14 2 0 -5 7 -10 15 -10 8 0 15 3 15 7 0 3 9 6 20 6 11 0
20 -4 20 -9 0 -6 5 -6 13 0 14 10 268 10 285 -1 7 -4 12 -2 12 5 0 10 3 10 12
1 7 -7 17 -8 29 -2 12 7 20 6 24 0 5 -8 11 -7 21 1 8 6 14 7 14 2 0 -5 7 -10
15 -10 8 0 15 3 15 7 0 3 9 6 20 6 11 0 20 -4 20 -9 0 -5 7 -4 16 4 9 7 18 9
22 3 6 -8 24 -10 45 -4 18 5 53 3 64 -3 6 -4 15 -2 19 4 4 8 9 7 15 -2 7 -12
9 -12 9 0 0 11 3 11 15 1 8 -7 15 -8 15 -3 0 5 9 9 20 9 11 0 20 -4 20 -9 0
-4 5 -5 11 -1 17 10 100 11 106 1 3 -4 11 -3 19 4 11 9 14 9 14 0 0 -9 5 -9
20 -1 14 8 20 8 20 0 0 -6 5 -8 10 -5 6 4 22 9 37 11 24 5 25 3 12 -13 -7 -10
6 1 30 24 43 41 44 44 47 111 l3 69 -125 218 c-68 120 -124 219 -124 220 0 2
-23 42 -51 90 -34 58 -63 94 -85 107 -34 20 -35 27 -8 58 11 13 14 202 16 964
l2 948 -27 24 -28 24 -430 0 c-236 0 -429 3 -429 8 0 4 7 16 15 26 19 25 19
36 0 36 -19 0 -19 10 0 46 14 27 14 29 -4 32 -18 3 -18 6 -6 35 7 18 16 52 20
76 7 44 7 44 -19 37 l-27 -7 16 30 c8 17 15 39 15 51 0 17 -3 19 -19 10 -27
-14 -34 -13 -27 6 5 13 1 15 -17 12 -20 -4 -23 -1 -19 23 4 24 1 27 -17 22
-21 -5 -22 -3 -35 76 -4 19 -12 41 -18 49 -10 12 -15 8 -30 -24 l-18 -39 4 38
c4 39 -7 47 -43 27 -16 -8 -21 -3 -36 35 -17 46 -28 59 -39 48z"/>
</g>
</svg>
